<svg xmlns="http://www.w3.org/2000/svg" xmlns:xlink="http://www.w3.org/1999/xlink" width="500" zoomAndPan="magnify" viewBox="0 0 375 374.999991" height="500" preserveAspectRatio="xMidYMid meet" version="1.0"><defs><g/><clipPath id="f62cada515"><path d="M 0 0 L 374.25 0 L 374.25 375 L 0 375 Z M 0 0 " clip-rule="nonzero"/></clipPath><clipPath id="b8c9d2b2fe"><path d="M 186.75 0 C 83.195312 0 -0.75 83.945312 -0.75 187.5 C -0.75 291.054688 83.195312 375 186.75 375 C 290.304688 375 374.25 291.054688 374.25 187.5 C 374.25 83.945312 290.304688 0 186.75 0 Z M 186.75 0 " clip-rule="nonzero"/></clipPath><clipPath id="072f0da0f0"><path d="M 116.144531 176.210938 L 258.644531 176.210938 L 258.644531 199.757812 L 116.144531 199.757812 Z M 116.144531 176.210938 " clip-rule="nonzero"/></clipPath><clipPath id="332e44f744"><path d="M 135 104.542969 L 240 104.542969 L 240 171 L 135 171 Z M 135 104.542969 " clip-rule="nonzero"/></clipPath><clipPath id="8bc621417b"><path d="M 198 124 L 214.996094 124 L 214.996094 151 L 198 151 Z M 198 124 " clip-rule="nonzero"/></clipPath><clipPath id="effbafe854"><path d="M 180 119 L 197 119 L 197 156.386719 L 180 156.386719 Z M 180 119 " clip-rule="nonzero"/></clipPath></defs><g clip-path="url(#f62cada515)"><g clip-path="url(#b8c9d2b2fe)"><path fill="#ffffff" d="M -0.75 0 L 374.25 0 L 374.25 375 L -0.75 375 Z M -0.75 0 " fill-opacity="1" fill-rule="nonzero"/></g></g><g clip-path="url(#072f0da0f0)"><path fill="#77caff" d="M 208.082031 193.761719 L 166.90625 193.761719 C 166.625 193.761719 166.441406 193.464844 166.574219 193.214844 L 169.742188 187.113281 C 169.808594 186.988281 169.9375 186.910156 170.078125 186.910156 L 204.914062 186.910156 C 205.054688 186.910156 205.183594 186.988281 205.25 187.113281 L 208.417969 193.214844 C 208.546875 193.464844 208.367188 193.761719 208.082031 193.761719 Z M 257.9375 194.457031 L 240.882812 177.40625 C 240.300781 176.820312 239.511719 176.496094 238.6875 176.496094 L 136.300781 176.496094 C 135.480469 176.496094 134.6875 176.820312 134.105469 177.40625 L 117.054688 194.457031 C 116.472656 195.039062 116.144531 195.828125 116.144531 196.652344 C 116.144531 198.367188 117.535156 199.757812 119.25 199.757812 L 255.742188 199.757812 C 257.457031 199.757812 258.84375 198.367188 258.84375 196.652344 C 258.84375 195.828125 258.519531 195.039062 257.9375 194.457031 " fill-opacity="1" fill-rule="nonzero"/></g><g clip-path="url(#332e44f744)"><path fill="#77caff" d="M 234.871094 104.574219 L 140.121094 104.574219 C 137.378906 104.574219 135.136719 106.816406 135.136719 109.558594 L 135.136719 165.8125 C 135.136719 168.554688 137.378906 170.796875 140.121094 170.796875 L 234.871094 170.796875 C 237.613281 170.796875 239.855469 168.554688 239.855469 165.8125 L 239.855469 109.558594 C 239.855469 106.816406 237.613281 104.574219 234.871094 104.574219 Z M 234.085938 110.34375 L 234.085938 165.027344 L 140.90625 165.027344 L 140.90625 110.34375 L 234.085938 110.34375 " fill-opacity="1" fill-rule="nonzero"/></g><path fill="#3a8eff" d="M 175.25 150.90625 C 174.464844 150.90625 173.9375 150.644531 173.414062 150.117188 L 162.917969 139.621094 C 161.867188 138.570312 161.867188 136.996094 162.917969 135.945312 L 173.414062 125.449219 C 174.464844 124.398438 176.039062 124.398438 177.085938 125.449219 C 178.136719 126.5 178.136719 128.074219 177.085938 129.125 L 168.425781 137.785156 L 177.085938 146.445312 C 178.136719 147.492188 178.136719 149.070312 177.085938 150.117188 C 176.5625 150.644531 176.039062 150.90625 175.25 150.90625 Z M 175.25 150.90625 " fill-opacity="1" fill-rule="nonzero"/><g clip-path="url(#8bc621417b)"><path fill="#3a8eff" d="M 201.492188 150.90625 C 200.707031 150.90625 200.183594 150.644531 199.65625 150.117188 C 198.605469 149.070312 198.605469 147.492188 199.65625 146.445312 L 208.316406 137.785156 L 199.65625 129.125 C 198.605469 128.074219 198.605469 126.5 199.65625 125.449219 C 200.707031 124.398438 202.28125 124.398438 203.332031 125.449219 L 213.828125 135.945312 C 214.878906 136.996094 214.878906 138.570312 213.828125 139.621094 L 203.332031 150.117188 C 202.804688 150.644531 202.28125 150.90625 201.492188 150.90625 Z M 201.492188 150.90625 " fill-opacity="1" fill-rule="nonzero"/></g><g clip-path="url(#effbafe854)"><path fill="#3a8eff" d="M 183.125 156.152344 C 182.859375 156.152344 182.597656 156.152344 182.335938 155.890625 C 181.023438 155.367188 180.238281 154.054688 180.761719 152.480469 L 191.257812 120.988281 C 191.785156 119.675781 193.097656 118.886719 194.671875 119.414062 C 195.984375 119.9375 196.769531 121.25 196.246094 122.824219 L 185.746094 154.316406 C 185.222656 155.367188 184.171875 156.152344 183.125 156.152344 Z M 183.125 156.152344 " fill-opacity="1" fill-rule="nonzero"/></g><g fill="#3a8eff" fill-opacity="1"><g transform="translate(12.885919, 236.893805)"><g><path d="M 13.796875 0.484375 C 10.816406 0.484375 8.488281 0.144531 6.8125 -0.53125 C 5.132812 -1.207031 3.925781 -2.3125 3.1875 -3.84375 C 2.457031 -5.375 2.09375 -7.472656 2.09375 -10.140625 C 2.09375 -12.816406 2.457031 -14.914062 3.1875 -16.4375 C 3.925781 -17.957031 5.132812 -19.054688 6.8125 -19.734375 C 8.488281 -20.410156 10.816406 -20.75 13.796875 -20.75 C 18.015625 -20.75 22.0625 -20.585938 25.9375 -20.265625 L 26.140625 -14.84375 C 22.742188 -15.21875 19 -15.546875 14.90625 -15.828125 C 13.15625 -15.953125 11.117188 -16.039062 8.796875 -16.09375 L 8.796875 -4.203125 C 10.816406 -4.265625 12.851562 -4.34375 14.90625 -4.4375 C 18.320312 -4.601562 22.117188 -4.929688 26.296875 -5.421875 L 26.09375 0 C 22.289062 0.320312 18.191406 0.484375 13.796875 0.484375 Z M 13.796875 0.484375 "/></g></g></g><g fill="#3a8eff" fill-opacity="1"><g transform="translate(43.499398, 236.893805)"><g><path d="M 22.234375 -12.90625 L 22.234375 -20.265625 L 28.359375 -20.265625 L 28.359375 0 L 22.234375 0 L 22.234375 -7.71875 L 9.390625 -7.71875 L 9.390625 0 L 3.28125 0 L 3.28125 -20.265625 L 9.390625 -20.265625 L 9.390625 -12.90625 Z M 22.234375 -12.90625 "/></g></g></g><g fill="#3a8eff" fill-opacity="1"><g transform="translate(78.107092, 236.893805)"><g><path d="M 28.40625 -0.15625 L 28.40625 0 L 20.546875 0 L 13.125 -7.03125 L 9.390625 -7.03125 L 9.390625 0 L 3.28125 0 L 3.28125 -20.265625 L 19.734375 -20.265625 C 22.617188 -20.265625 24.734375 -19.710938 26.078125 -18.609375 C 27.429688 -17.515625 28.109375 -15.863281 28.109375 -13.65625 C 28.109375 -11.601562 27.523438 -10.023438 26.359375 -8.921875 C 25.203125 -7.828125 23.390625 -7.207031 20.921875 -7.0625 Z M 21.671875 -15.5625 L 9.390625 -15.5625 L 9.390625 -11.296875 L 21.671875 -11.296875 Z M 21.671875 -15.5625 "/></g></g></g><g fill="#3a8eff" fill-opacity="1"><g transform="translate(111.075359, 236.893805)"><g><path d="M 15.796875 0 L 9.6875 0 L 9.6875 -6.796875 L -0.296875 -20.125 L -0.296875 -20.265625 L 7.03125 -20.265625 L 12.8125 -12.15625 L 12.96875 -12.15625 L 18.71875 -20.265625 L 25.765625 -20.265625 L 25.765625 -20.125 L 15.796875 -6.734375 Z M 15.796875 0 "/></g></g></g><g fill="#3a8eff" fill-opacity="1"><g transform="translate(139.512875, 236.893805)"><g><path d="M 15.6875 0.484375 C 10.476562 0.484375 5.925781 0.253906 2.03125 -0.203125 L 1.8125 -5.640625 C 5.726562 -5.117188 8.851562 -4.78125 11.1875 -4.625 C 13.507812 -4.476562 16.25 -4.359375 19.40625 -4.265625 L 19.40625 -7.546875 L 8.59375 -8.375 C 6.164062 -8.570312 4.375 -9.160156 3.21875 -10.140625 C 2.0625 -11.128906 1.484375 -12.566406 1.484375 -14.453125 C 1.484375 -16.617188 2.269531 -18.207031 3.84375 -19.21875 C 5.414062 -20.238281 7.890625 -20.75 11.265625 -20.75 C 14.804688 -20.75 19.191406 -20.539062 24.421875 -20.125 L 24.59375 -14.703125 C 20.757812 -15.210938 17.269531 -15.566406 14.125 -15.765625 C 12.019531 -15.910156 9.945312 -15.992188 7.90625 -16.015625 L 7.90625 -12.8125 L 18.15625 -12.015625 C 20.800781 -11.796875 22.738281 -11.195312 23.96875 -10.21875 C 25.195312 -9.25 25.8125 -7.78125 25.8125 -5.8125 C 25.8125 -3.6875 25.03125 -2.101562 23.46875 -1.0625 C 21.914062 -0.03125 19.320312 0.484375 15.6875 0.484375 Z M 15.6875 0.484375 "/></g></g></g><g fill="#3a8eff" fill-opacity="1"><g transform="translate(169.500391, 236.893805)"><g><path d="M 16.21875 0 L 10.109375 0 L 10.109375 -15.109375 L 0.234375 -15.109375 L 0.234375 -20.265625 L 26.09375 -20.265625 L 26.09375 -15.109375 L 16.21875 -15.109375 Z M 16.21875 0 "/></g></g></g><g fill="#3a8eff" fill-opacity="1"><g transform="translate(198.802343, 236.893805)"><g><path d="M 16.15625 0.484375 C 12.582031 0.484375 9.785156 0.148438 7.765625 -0.515625 C 5.742188 -1.179688 4.289062 -2.273438 3.40625 -3.796875 C 2.53125 -5.316406 2.09375 -7.429688 2.09375 -10.140625 C 2.09375 -12.859375 2.523438 -14.976562 3.390625 -16.5 C 4.265625 -18.019531 5.710938 -19.109375 7.734375 -19.765625 C 9.753906 -20.421875 12.5625 -20.75 16.15625 -20.75 C 19.75 -20.75 22.554688 -20.421875 24.578125 -19.765625 C 26.597656 -19.109375 28.046875 -18.019531 28.921875 -16.5 C 29.796875 -14.976562 30.234375 -12.859375 30.234375 -10.140625 C 30.234375 -7.429688 29.796875 -5.316406 28.921875 -3.796875 C 28.046875 -2.273438 26.597656 -1.179688 24.578125 -0.515625 C 22.554688 0.148438 19.75 0.484375 16.15625 0.484375 Z M 16.15625 -4.890625 C 18.625 -4.890625 21.085938 -4.945312 23.546875 -5.0625 L 23.546875 -15.234375 C 20.804688 -15.335938 18.34375 -15.390625 16.15625 -15.390625 C 13.96875 -15.390625 11.515625 -15.335938 8.796875 -15.234375 L 8.796875 -5.0625 C 11.242188 -4.945312 13.695312 -4.890625 16.15625 -4.890625 Z M 16.15625 -4.890625 "/></g></g></g><g fill="#3a8eff" fill-opacity="1"><g transform="translate(234.095608, 236.893805)"><g><path d="M 3.28125 0 L 3.28125 -20.265625 L 19.53125 -20.265625 C 22.425781 -20.265625 24.550781 -19.675781 25.90625 -18.5 C 27.257812 -17.332031 27.9375 -15.546875 27.9375 -13.140625 C 27.9375 -10.722656 27.257812 -8.925781 25.90625 -7.75 C 24.550781 -6.582031 22.425781 -6 19.53125 -6 L 9.390625 -6 L 9.390625 0 Z M 9.390625 -15.46875 L 9.390625 -10.796875 L 21.4375 -10.796875 L 21.4375 -15.46875 Z M 9.390625 -15.46875 "/></g></g></g><g fill="#3a8eff" fill-opacity="1"><g transform="translate(265.961003, 236.893805)"><g><path d="M 22.234375 -12.90625 L 22.234375 -20.265625 L 28.359375 -20.265625 L 28.359375 0 L 22.234375 0 L 22.234375 -7.71875 L 9.390625 -7.71875 L 9.390625 0 L 3.28125 0 L 3.28125 -20.265625 L 9.390625 -20.265625 L 9.390625 -12.90625 Z M 22.234375 -12.90625 "/></g></g></g><g fill="#3a8eff" fill-opacity="1"><g transform="translate(300.568682, 236.893805)"><g><path d="M 26.765625 0 L 3.28125 0 L 3.28125 -20.265625 L 26.328125 -20.265625 L 26.328125 -15.328125 L 9.390625 -15.328125 L 9.390625 -12.21875 L 21.734375 -12.21875 L 21.734375 -8.046875 L 9.390625 -8.046875 L 9.390625 -4.953125 L 26.765625 -4.953125 Z M 26.765625 0 "/></g></g></g><g fill="#3a8eff" fill-opacity="1"><g transform="translate(332.106205, 236.893805)"><g><path d="M 28.40625 -0.15625 L 28.40625 0 L 20.546875 0 L 13.125 -7.03125 L 9.390625 -7.03125 L 9.390625 0 L 3.28125 0 L 3.28125 -20.265625 L 19.734375 -20.265625 C 22.617188 -20.265625 24.734375 -19.710938 26.078125 -18.609375 C 27.429688 -17.515625 28.109375 -15.863281 28.109375 -13.65625 C 28.109375 -11.601562 27.523438 -10.023438 26.359375 -8.921875 C 25.203125 -7.828125 23.390625 -7.207031 20.921875 -7.0625 Z M 21.671875 -15.5625 L 9.390625 -15.5625 L 9.390625 -11.296875 L 21.671875 -11.296875 Z M 21.671875 -15.5625 "/></g></g></g><g fill="#005cd8" fill-opacity="1"><g transform="translate(68.150649, 266.785036)"><g><path d="M 1.171875 0 L 1.171875 -9.71875 L 4.453125 -9.71875 C 5.222656 -9.71875 5.847656 -9.578125 6.328125 -9.296875 C 6.816406 -9.023438 7.175781 -8.65625 7.40625 -8.1875 C 7.644531 -7.726562 7.765625 -7.210938 7.765625 -6.640625 C 7.765625 -6.066406 7.644531 -5.546875 7.40625 -5.078125 C 7.175781 -4.609375 6.816406 -4.234375 6.328125 -3.953125 C 5.847656 -3.679688 5.234375 -3.546875 4.484375 -3.546875 L 2.359375 -3.546875 L 2.359375 0 Z M 2.359375 -4.59375 L 4.4375 -4.59375 C 5.21875 -4.59375 5.773438 -4.785156 6.109375 -5.171875 C 6.441406 -5.566406 6.609375 -6.054688 6.609375 -6.640625 C 6.609375 -7.222656 6.441406 -7.707031 6.109375 -8.09375 C 5.773438 -8.476562 5.210938 -8.671875 4.421875 -8.671875 L 2.359375 -8.671875 Z M 2.359375 -4.59375 "/></g></g></g><g fill="#005cd8" fill-opacity="1"><g transform="translate(79.301552, 266.785036)"><g><path d="M 1.171875 0 L 1.171875 -9.71875 L 4.453125 -9.71875 C 5.210938 -9.71875 5.835938 -9.585938 6.328125 -9.328125 C 6.816406 -9.066406 7.175781 -8.710938 7.40625 -8.265625 C 7.644531 -7.816406 7.765625 -7.304688 7.765625 -6.734375 C 7.765625 -6.085938 7.613281 -5.523438 7.3125 -5.046875 C 7.019531 -4.566406 6.5625 -4.222656 5.9375 -4.015625 L 8.140625 0 L 6.78125 0 L 4.71875 -3.796875 C 4.644531 -3.796875 4.566406 -3.796875 4.484375 -3.796875 L 2.359375 -3.796875 L 2.359375 0 Z M 2.359375 -4.859375 L 4.4375 -4.859375 C 5.21875 -4.859375 5.773438 -5.023438 6.109375 -5.359375 C 6.441406 -5.691406 6.609375 -6.148438 6.609375 -6.734375 C 6.609375 -7.316406 6.441406 -7.785156 6.109375 -8.140625 C 5.773438 -8.492188 5.210938 -8.671875 4.421875 -8.671875 L 2.359375 -8.671875 Z M 2.359375 -4.859375 "/></g></g></g><g fill="#005cd8" fill-opacity="1"><g transform="translate(90.509373, 266.785036)"><g><path d="M 9.375 -4.859375 C 9.375 -3.835938 9.1875 -2.953125 8.8125 -2.203125 C 8.445312 -1.453125 7.941406 -0.875 7.296875 -0.46875 C 6.648438 -0.0625 5.910156 0.140625 5.078125 0.140625 C 4.253906 0.140625 3.519531 -0.0625 2.875 -0.46875 C 2.226562 -0.875 1.71875 -1.453125 1.34375 -2.203125 C 0.976562 -2.953125 0.796875 -3.835938 0.796875 -4.859375 C 0.796875 -5.878906 0.976562 -6.765625 1.34375 -7.515625 C 1.71875 -8.265625 2.226562 -8.835938 2.875 -9.234375 C 3.519531 -9.640625 4.253906 -9.84375 5.078125 -9.84375 C 5.910156 -9.84375 6.648438 -9.640625 7.296875 -9.234375 C 7.941406 -8.835938 8.445312 -8.265625 8.8125 -7.515625 C 9.1875 -6.765625 9.375 -5.878906 9.375 -4.859375 Z M 8.234375 -4.859375 C 8.234375 -5.703125 8.09375 -6.410156 7.8125 -6.984375 C 7.53125 -7.566406 7.148438 -8.003906 6.671875 -8.296875 C 6.203125 -8.597656 5.671875 -8.75 5.078125 -8.75 C 4.492188 -8.75 3.960938 -8.597656 3.484375 -8.296875 C 3.015625 -8.003906 2.640625 -7.566406 2.359375 -6.984375 C 2.078125 -6.410156 1.9375 -5.703125 1.9375 -4.859375 C 1.9375 -4.015625 2.078125 -3.300781 2.359375 -2.71875 C 2.640625 -2.144531 3.015625 -1.707031 3.484375 -1.40625 C 3.960938 -1.113281 4.492188 -0.96875 5.078125 -0.96875 C 5.671875 -0.96875 6.203125 -1.113281 6.671875 -1.40625 C 7.148438 -1.707031 7.53125 -2.144531 7.8125 -2.71875 C 8.09375 -3.300781 8.234375 -4.015625 8.234375 -4.859375 Z M 8.234375 -4.859375 "/></g></g></g><g fill="#005cd8" fill-opacity="1"><g transform="translate(103.348512, 266.785036)"><g><path d="M 7.8125 -6.671875 C 7.613281 -7.316406 7.273438 -7.820312 6.796875 -8.1875 C 6.328125 -8.5625 5.742188 -8.75 5.046875 -8.75 C 4.472656 -8.75 3.945312 -8.597656 3.46875 -8.296875 C 3 -8.003906 2.625 -7.566406 2.34375 -6.984375 C 2.070312 -6.410156 1.9375 -5.703125 1.9375 -4.859375 C 1.9375 -4.015625 2.078125 -3.300781 2.359375 -2.71875 C 2.640625 -2.144531 3.019531 -1.707031 3.5 -1.40625 C 3.976562 -1.113281 4.519531 -0.96875 5.125 -0.96875 C 5.664062 -0.96875 6.148438 -1.082031 6.578125 -1.3125 C 7.003906 -1.550781 7.335938 -1.878906 7.578125 -2.296875 C 7.816406 -2.722656 7.941406 -3.226562 7.953125 -3.8125 L 5.390625 -3.8125 L 5.390625 -4.859375 L 9.09375 -4.859375 L 9.09375 -3.8125 C 9.09375 -3.007812 8.921875 -2.3125 8.578125 -1.71875 C 8.234375 -1.132812 7.765625 -0.675781 7.171875 -0.34375 C 6.578125 -0.0195312 5.894531 0.140625 5.125 0.140625 C 4.257812 0.140625 3.503906 -0.0625 2.859375 -0.46875 C 2.210938 -0.875 1.707031 -1.453125 1.34375 -2.203125 C 0.976562 -2.953125 0.796875 -3.835938 0.796875 -4.859375 C 0.796875 -5.878906 0.976562 -6.765625 1.34375 -7.515625 C 1.707031 -8.265625 2.207031 -8.835938 2.84375 -9.234375 C 3.488281 -9.640625 4.222656 -9.84375 5.046875 -9.84375 C 5.734375 -9.84375 6.351562 -9.707031 6.90625 -9.4375 C 7.46875 -9.175781 7.929688 -8.804688 8.296875 -8.328125 C 8.671875 -7.859375 8.914062 -7.304688 9.03125 -6.671875 Z M 7.8125 -6.671875 "/></g></g></g><g fill="#005cd8" fill-opacity="1"><g transform="translate(115.941051, 266.785036)"><g><path d="M 1.171875 0 L 1.171875 -9.71875 L 4.453125 -9.71875 C 5.210938 -9.71875 5.835938 -9.585938 6.328125 -9.328125 C 6.816406 -9.066406 7.175781 -8.710938 7.40625 -8.265625 C 7.644531 -7.816406 7.765625 -7.304688 7.765625 -6.734375 C 7.765625 -6.085938 7.613281 -5.523438 7.3125 -5.046875 C 7.019531 -4.566406 6.5625 -4.222656 5.9375 -4.015625 L 8.140625 0 L 6.78125 0 L 4.71875 -3.796875 C 4.644531 -3.796875 4.566406 -3.796875 4.484375 -3.796875 L 2.359375 -3.796875 L 2.359375 0 Z M 2.359375 -4.859375 L 4.4375 -4.859375 C 5.21875 -4.859375 5.773438 -5.023438 6.109375 -5.359375 C 6.441406 -5.691406 6.609375 -6.148438 6.609375 -6.734375 C 6.609375 -7.316406 6.441406 -7.785156 6.109375 -8.140625 C 5.773438 -8.492188 5.210938 -8.671875 4.421875 -8.671875 L 2.359375 -8.671875 Z M 2.359375 -4.859375 "/></g></g></g><g fill="#005cd8" fill-opacity="1"><g transform="translate(127.148873, 266.785036)"><g><path d="M 1.578125 0 L 0.34375 0 L 3.90625 -9.71875 L 5.125 -9.71875 L 8.6875 0 L 7.453125 0 L 6.484375 -2.75 L 2.546875 -2.75 Z M 2.921875 -3.796875 L 6.109375 -3.796875 L 4.546875 -8.171875 L 4.484375 -8.171875 Z M 2.921875 -3.796875 "/></g></g></g><g fill="#005cd8" fill-opacity="1"><g transform="translate(138.849877, 266.785036)"><g><path d="M 1.171875 -9.71875 L 2.578125 -9.71875 L 5.875 -1.65625 L 6 -1.65625 L 9.296875 -9.71875 L 10.703125 -9.71875 L 10.703125 0 L 9.609375 0 L 9.609375 -7.375 L 9.5 -7.375 L 6.46875 0 L 5.40625 0 L 2.375 -7.375 L 2.28125 -7.375 L 2.28125 0 L 1.171875 0 Z M 1.171875 -9.71875 "/></g></g></g><g fill="#005cd8" fill-opacity="1"><g transform="translate(153.699731, 266.785036)"><g><path d="M 1.578125 0 L 0.34375 0 L 3.90625 -9.71875 L 5.125 -9.71875 L 8.6875 0 L 7.453125 0 L 6.484375 -2.75 L 2.546875 -2.75 Z M 2.921875 -3.796875 L 6.109375 -3.796875 L 4.546875 -8.171875 L 4.484375 -8.171875 Z M 2.921875 -3.796875 "/></g></g></g><g fill="#005cd8" fill-opacity="1"><g transform="translate(165.400732, 266.785036)"><g><path d="M 4.171875 0 L 1.171875 0 L 1.171875 -9.71875 L 4.3125 -9.71875 C 5.25 -9.71875 6.050781 -9.519531 6.71875 -9.125 C 7.394531 -8.738281 7.910156 -8.1875 8.265625 -7.46875 C 8.628906 -6.75 8.8125 -5.882812 8.8125 -4.875 C 8.8125 -3.863281 8.628906 -2.992188 8.265625 -2.265625 C 7.898438 -1.535156 7.375 -0.972656 6.6875 -0.578125 C 6 -0.191406 5.160156 0 4.171875 0 Z M 2.359375 -1.046875 L 4.09375 -1.046875 C 5.300781 -1.046875 6.195312 -1.382812 6.78125 -2.0625 C 7.375 -2.75 7.671875 -3.6875 7.671875 -4.875 C 7.671875 -6.050781 7.378906 -6.976562 6.796875 -7.65625 C 6.222656 -8.332031 5.367188 -8.671875 4.234375 -8.671875 L 2.359375 -8.671875 Z M 2.359375 -1.046875 "/></g></g></g><g fill="#005cd8" fill-opacity="1"><g transform="translate(177.670807, 266.785036)"><g><path d="M 9.375 -4.859375 C 9.375 -3.835938 9.1875 -2.953125 8.8125 -2.203125 C 8.445312 -1.453125 7.941406 -0.875 7.296875 -0.46875 C 6.648438 -0.0625 5.910156 0.140625 5.078125 0.140625 C 4.253906 0.140625 3.519531 -0.0625 2.875 -0.46875 C 2.226562 -0.875 1.71875 -1.453125 1.34375 -2.203125 C 0.976562 -2.953125 0.796875 -3.835938 0.796875 -4.859375 C 0.796875 -5.878906 0.976562 -6.765625 1.34375 -7.515625 C 1.71875 -8.265625 2.226562 -8.835938 2.875 -9.234375 C 3.519531 -9.640625 4.253906 -9.84375 5.078125 -9.84375 C 5.910156 -9.84375 6.648438 -9.640625 7.296875 -9.234375 C 7.941406 -8.835938 8.445312 -8.265625 8.8125 -7.515625 C 9.1875 -6.765625 9.375 -5.878906 9.375 -4.859375 Z M 8.234375 -4.859375 C 8.234375 -5.703125 8.09375 -6.410156 7.8125 -6.984375 C 7.53125 -7.566406 7.148438 -8.003906 6.671875 -8.296875 C 6.203125 -8.597656 5.671875 -8.75 5.078125 -8.75 C 4.492188 -8.75 3.960938 -8.597656 3.484375 -8.296875 C 3.015625 -8.003906 2.640625 -7.566406 2.359375 -6.984375 C 2.078125 -6.410156 1.9375 -5.703125 1.9375 -4.859375 C 1.9375 -4.015625 2.078125 -3.300781 2.359375 -2.71875 C 2.640625 -2.144531 3.015625 -1.707031 3.484375 -1.40625 C 3.960938 -1.113281 4.492188 -0.96875 5.078125 -0.96875 C 5.671875 -0.96875 6.203125 -1.113281 6.671875 -1.40625 C 7.148438 -1.707031 7.53125 -2.144531 7.8125 -2.71875 C 8.09375 -3.300781 8.234375 -4.015625 8.234375 -4.859375 Z M 8.234375 -4.859375 "/></g></g></g><g fill="#005cd8" fill-opacity="1"><g transform="translate(190.509942, 266.785036)"><g><path d="M 1.171875 0 L 1.171875 -9.71875 L 4.453125 -9.71875 C 5.210938 -9.71875 5.835938 -9.585938 6.328125 -9.328125 C 6.816406 -9.066406 7.175781 -8.710938 7.40625 -8.265625 C 7.644531 -7.816406 7.765625 -7.304688 7.765625 -6.734375 C 7.765625 -6.085938 7.613281 -5.523438 7.3125 -5.046875 C 7.019531 -4.566406 6.5625 -4.222656 5.9375 -4.015625 L 8.140625 0 L 6.78125 0 L 4.71875 -3.796875 C 4.644531 -3.796875 4.566406 -3.796875 4.484375 -3.796875 L 2.359375 -3.796875 L 2.359375 0 Z M 2.359375 -4.859375 L 4.4375 -4.859375 C 5.21875 -4.859375 5.773438 -5.023438 6.109375 -5.359375 C 6.441406 -5.691406 6.609375 -6.148438 6.609375 -6.734375 C 6.609375 -7.316406 6.441406 -7.785156 6.109375 -8.140625 C 5.773438 -8.492188 5.210938 -8.671875 4.421875 -8.671875 L 2.359375 -8.671875 Z M 2.359375 -4.859375 "/></g></g></g><g fill="#005cd8" fill-opacity="1"><g transform="translate(201.71776, 266.785036)"><g/></g></g><g fill="#005cd8" fill-opacity="1"><g transform="translate(208.145415, 266.785036)"><g><path d="M 1.171875 0 L 1.171875 -9.71875 L 7 -9.71875 L 7 -8.671875 L 2.359375 -8.671875 L 2.359375 -5.390625 L 6.5625 -5.390625 L 6.5625 -4.34375 L 2.359375 -4.34375 L 2.359375 0 Z M 1.171875 0 "/></g></g></g><g fill="#005cd8" fill-opacity="1"><g transform="translate(218.651379, 266.785036)"><g><path d="M 7.546875 -9.71875 L 8.734375 -9.71875 L 8.734375 -3.28125 C 8.734375 -2.550781 8.554688 -1.925781 8.203125 -1.40625 C 7.859375 -0.894531 7.398438 -0.503906 6.828125 -0.234375 C 6.265625 0.0351562 5.640625 0.171875 4.953125 0.171875 C 4.265625 0.171875 3.632812 0.0351562 3.0625 -0.234375 C 2.488281 -0.503906 2.03125 -0.894531 1.6875 -1.40625 C 1.34375 -1.925781 1.171875 -2.550781 1.171875 -3.28125 L 1.171875 -9.71875 L 2.359375 -9.71875 L 2.359375 -3.28125 C 2.359375 -2.78125 2.476562 -2.351562 2.71875 -2 C 2.957031 -1.644531 3.273438 -1.378906 3.671875 -1.203125 C 4.066406 -1.023438 4.492188 -0.9375 4.953125 -0.9375 C 5.410156 -0.9375 5.835938 -1.023438 6.234375 -1.203125 C 6.628906 -1.378906 6.945312 -1.644531 7.1875 -2 C 7.425781 -2.351562 7.546875 -2.78125 7.546875 -3.28125 Z M 7.546875 -9.71875 "/></g></g></g><g fill="#005cd8" fill-opacity="1"><g transform="translate(231.224957, 266.785036)"><g><path d="M 1.171875 0 L 1.171875 -9.71875 L 2.359375 -9.71875 L 2.359375 -1.046875 L 6.875 -1.046875 L 6.875 0 Z M 1.171875 0 "/></g></g></g><g fill="#005cd8" fill-opacity="1"><g transform="translate(241.408446, 266.785036)"><g><path d="M 1.171875 0 L 1.171875 -9.71875 L 2.359375 -9.71875 L 2.359375 -1.046875 L 6.875 -1.046875 L 6.875 0 Z M 1.171875 0 "/></g></g></g><g fill="#005cd8" fill-opacity="1"><g transform="translate(251.591935, 266.785036)"><g><path d="M 6.484375 -7.28125 C 6.429688 -7.769531 6.203125 -8.144531 5.796875 -8.40625 C 5.390625 -8.675781 4.894531 -8.8125 4.3125 -8.8125 C 3.664062 -8.8125 3.144531 -8.65625 2.75 -8.34375 C 2.351562 -8.039062 2.15625 -7.65625 2.15625 -7.1875 C 2.15625 -6.84375 2.257812 -6.5625 2.46875 -6.34375 C 2.6875 -6.132812 2.941406 -5.96875 3.234375 -5.84375 C 3.535156 -5.726562 3.804688 -5.640625 4.046875 -5.578125 L 5.03125 -5.3125 C 5.28125 -5.25 5.5625 -5.15625 5.875 -5.03125 C 6.1875 -4.914062 6.484375 -4.757812 6.765625 -4.5625 C 7.054688 -4.363281 7.296875 -4.109375 7.484375 -3.796875 C 7.671875 -3.484375 7.765625 -3.097656 7.765625 -2.640625 C 7.765625 -2.109375 7.625 -1.628906 7.34375 -1.203125 C 7.070312 -0.785156 6.675781 -0.453125 6.15625 -0.203125 C 5.632812 0.046875 5 0.171875 4.25 0.171875 C 3.207031 0.171875 2.378906 -0.0703125 1.765625 -0.5625 C 1.148438 -1.0625 0.816406 -1.707031 0.765625 -2.5 L 1.96875 -2.5 C 2 -2.132812 2.125 -1.832031 2.34375 -1.59375 C 2.5625 -1.351562 2.835938 -1.175781 3.171875 -1.0625 C 3.503906 -0.945312 3.863281 -0.890625 4.25 -0.890625 C 4.695312 -0.890625 5.097656 -0.960938 5.453125 -1.109375 C 5.816406 -1.253906 6.101562 -1.457031 6.3125 -1.71875 C 6.519531 -1.988281 6.625 -2.300781 6.625 -2.65625 C 6.625 -2.976562 6.53125 -3.238281 6.34375 -3.4375 C 6.164062 -3.644531 5.929688 -3.8125 5.640625 -3.9375 C 5.347656 -4.0625 5.03125 -4.171875 4.6875 -4.265625 L 3.484375 -4.609375 C 2.734375 -4.828125 2.132812 -5.140625 1.6875 -5.546875 C 1.25 -5.953125 1.03125 -6.484375 1.03125 -7.140625 C 1.03125 -7.679688 1.175781 -8.15625 1.46875 -8.5625 C 1.757812 -8.96875 2.15625 -9.28125 2.65625 -9.5 C 3.164062 -9.726562 3.726562 -9.84375 4.34375 -9.84375 C 4.96875 -9.84375 5.523438 -9.734375 6.015625 -9.515625 C 6.503906 -9.296875 6.890625 -8.988281 7.171875 -8.59375 C 7.460938 -8.207031 7.613281 -7.769531 7.625 -7.28125 Z M 6.484375 -7.28125 "/></g></g></g><g fill="#005cd8" fill-opacity="1"><g transform="translate(262.78078, 266.785036)"><g><path d="M 0.640625 -8.671875 L 0.640625 -9.71875 L 7.9375 -9.71875 L 7.9375 -8.671875 L 4.875 -8.671875 L 4.875 0 L 3.703125 0 L 3.703125 -8.671875 Z M 0.640625 -8.671875 "/></g></g></g><g fill="#005cd8" fill-opacity="1"><g transform="translate(274.026527, 266.785036)"><g><path d="M 1.578125 0 L 0.34375 0 L 3.90625 -9.71875 L 5.125 -9.71875 L 8.6875 0 L 7.453125 0 L 6.484375 -2.75 L 2.546875 -2.75 Z M 2.921875 -3.796875 L 6.109375 -3.796875 L 4.546875 -8.171875 L 4.484375 -8.171875 Z M 2.921875 -3.796875 "/></g></g></g><g fill="#005cd8" fill-opacity="1"><g transform="translate(285.727528, 266.785036)"><g><path d="M 9 -6.671875 L 7.8125 -6.671875 C 7.71875 -7.128906 7.535156 -7.507812 7.265625 -7.8125 C 7.003906 -8.125 6.679688 -8.359375 6.296875 -8.515625 C 5.921875 -8.671875 5.515625 -8.75 5.078125 -8.75 C 4.492188 -8.75 3.960938 -8.597656 3.484375 -8.296875 C 3.015625 -8.003906 2.640625 -7.566406 2.359375 -6.984375 C 2.078125 -6.410156 1.9375 -5.703125 1.9375 -4.859375 C 1.9375 -4.015625 2.078125 -3.300781 2.359375 -2.71875 C 2.640625 -2.144531 3.015625 -1.707031 3.484375 -1.40625 C 3.960938 -1.113281 4.492188 -0.96875 5.078125 -0.96875 C 5.515625 -0.96875 5.921875 -1.046875 6.296875 -1.203125 C 6.679688 -1.359375 7.003906 -1.585938 7.265625 -1.890625 C 7.535156 -2.203125 7.71875 -2.582031 7.8125 -3.03125 L 9 -3.03125 C 8.875 -2.375 8.625 -1.804688 8.25 -1.328125 C 7.882812 -0.859375 7.425781 -0.492188 6.875 -0.234375 C 6.332031 0.015625 5.734375 0.140625 5.078125 0.140625 C 4.253906 0.140625 3.519531 -0.0625 2.875 -0.46875 C 2.226562 -0.875 1.71875 -1.453125 1.34375 -2.203125 C 0.976562 -2.953125 0.796875 -3.835938 0.796875 -4.859375 C 0.796875 -5.878906 0.976562 -6.765625 1.34375 -7.515625 C 1.71875 -8.265625 2.226562 -8.835938 2.875 -9.234375 C 3.519531 -9.640625 4.253906 -9.84375 5.078125 -9.84375 C 5.734375 -9.84375 6.332031 -9.71875 6.875 -9.46875 C 7.425781 -9.21875 7.882812 -8.851562 8.25 -8.375 C 8.625 -7.90625 8.875 -7.335938 9 -6.671875 Z M 9 -6.671875 "/></g></g></g><g fill="#005cd8" fill-opacity="1"><g transform="translate(298.111409, 266.785036)"><g><path d="M 1.171875 0 L 1.171875 -9.71875 L 2.359375 -9.71875 L 2.359375 -4.890625 L 2.46875 -4.890625 L 6.828125 -9.71875 L 8.375 -9.71875 L 4.28125 -5.328125 L 8.375 0 L 6.9375 0 L 3.5625 -4.515625 L 2.359375 -3.15625 L 2.359375 0 Z M 1.171875 0 "/></g></g></g></svg>